<mxfile host="65bd71144e">
    <diagram id="DD2_MYTVP4-naRDr37un" name="物理設計ver">
        <mxGraphModel dx="1337" dy="1312" grid="1" gridSize="10" guides="1" tooltips="1" connect="1" arrows="1" fold="1" page="1" pageScale="1" pageWidth="1600" pageHeight="900" math="0" shadow="0">
            <root>
                <mxCell id="0"/>
                <mxCell id="1" parent="0"/>
                <mxCell id="ElQEqkokP7DGrJVSCs05-3" value="ユーザーテーブル" style="text;strokeColor=none;align=left;fillColor=none;html=1;verticalAlign=middle;whiteSpace=wrap;rounded=0;" parent="1" vertex="1">
                    <mxGeometry x="40" y="30" width="110" height="30" as="geometry"/>
                </mxCell>
                <mxCell id="ElQEqkokP7DGrJVSCs05-4" value="user" style="shape=table;startSize=30;container=1;collapsible=1;childLayout=tableLayout;fixedRows=1;rowLines=0;fontStyle=1;align=center;resizeLast=1;" parent="1" vertex="1">
                    <mxGeometry x="40" y="60" width="350" height="210" as="geometry"/>
                </mxCell>
                <mxCell id="ElQEqkokP7DGrJVSCs05-5" value="" style="shape=tableRow;horizontal=0;startSize=0;swimlaneHead=0;swimlaneBody=0;fillColor=none;collapsible=0;dropTarget=0;points=[[0,0.5],[1,0.5]];portConstraint=eastwest;top=0;left=0;right=0;bottom=1;" parent="ElQEqkokP7DGrJVSCs05-4" vertex="1">
                    <mxGeometry y="30" width="350" height="30" as="geometry"/>
                </mxCell>
                <mxCell id="ElQEqkokP7DGrJVSCs05-6" value="PK" style="shape=partialRectangle;connectable=0;fillColor=none;top=0;left=0;bottom=0;right=0;fontStyle=1;overflow=hidden;" parent="ElQEqkokP7DGrJVSCs05-5" vertex="1">
                    <mxGeometry width="30" height="30" as="geometry">
                        <mxRectangle width="30" height="30" as="alternateBounds"/>
                    </mxGeometry>
                </mxCell>
                <mxCell id="ElQEqkokP7DGrJVSCs05-7" value="user_id" style="shape=partialRectangle;connectable=0;fillColor=none;top=0;left=0;bottom=0;right=0;align=left;spacingLeft=6;fontStyle=5;overflow=hidden;" parent="ElQEqkokP7DGrJVSCs05-5" vertex="1">
                    <mxGeometry x="30" width="90" height="30" as="geometry">
                        <mxRectangle width="90" height="30" as="alternateBounds"/>
                    </mxGeometry>
                </mxCell>
                <mxCell id="ElQEqkokP7DGrJVSCs05-20" value="VARCHAR(20)" style="shape=partialRectangle;connectable=0;fillColor=none;top=0;left=0;bottom=0;right=0;align=left;spacingLeft=6;fontStyle=5;overflow=hidden;" parent="ElQEqkokP7DGrJVSCs05-5" vertex="1">
                    <mxGeometry x="120" width="100" height="30" as="geometry">
                        <mxRectangle width="100" height="30" as="alternateBounds"/>
                    </mxGeometry>
                </mxCell>
                <mxCell id="ElQEqkokP7DGrJVSCs05-24" value="PRIMARY KEY" style="shape=partialRectangle;connectable=0;fillColor=none;top=0;left=0;bottom=0;right=0;align=left;spacingLeft=6;fontStyle=5;overflow=hidden;" parent="ElQEqkokP7DGrJVSCs05-5" vertex="1">
                    <mxGeometry x="220" width="130" height="30" as="geometry">
                        <mxRectangle width="130" height="30" as="alternateBounds"/>
                    </mxGeometry>
                </mxCell>
                <mxCell id="ElQEqkokP7DGrJVSCs05-8" value="" style="shape=tableRow;horizontal=0;startSize=0;swimlaneHead=0;swimlaneBody=0;fillColor=none;collapsible=0;dropTarget=0;points=[[0,0.5],[1,0.5]];portConstraint=eastwest;top=0;left=0;right=0;bottom=0;" parent="ElQEqkokP7DGrJVSCs05-4" vertex="1">
                    <mxGeometry y="60" width="350" height="30" as="geometry"/>
                </mxCell>
                <mxCell id="ElQEqkokP7DGrJVSCs05-9" value="" style="shape=partialRectangle;connectable=0;fillColor=none;top=0;left=0;bottom=0;right=0;editable=1;overflow=hidden;" parent="ElQEqkokP7DGrJVSCs05-8" vertex="1">
                    <mxGeometry width="30" height="30" as="geometry">
                        <mxRectangle width="30" height="30" as="alternateBounds"/>
                    </mxGeometry>
                </mxCell>
                <mxCell id="ElQEqkokP7DGrJVSCs05-10" value="user_name" style="shape=partialRectangle;connectable=0;fillColor=none;top=0;left=0;bottom=0;right=0;align=left;spacingLeft=6;overflow=hidden;" parent="ElQEqkokP7DGrJVSCs05-8" vertex="1">
                    <mxGeometry x="30" width="90" height="30" as="geometry">
                        <mxRectangle width="90" height="30" as="alternateBounds"/>
                    </mxGeometry>
                </mxCell>
                <mxCell id="ElQEqkokP7DGrJVSCs05-21" value="VARCHAR(40)" style="shape=partialRectangle;connectable=0;fillColor=none;top=0;left=0;bottom=0;right=0;align=left;spacingLeft=6;overflow=hidden;" parent="ElQEqkokP7DGrJVSCs05-8" vertex="1">
                    <mxGeometry x="120" width="100" height="30" as="geometry">
                        <mxRectangle width="100" height="30" as="alternateBounds"/>
                    </mxGeometry>
                </mxCell>
                <mxCell id="ElQEqkokP7DGrJVSCs05-25" value="NOT NULL" style="shape=partialRectangle;connectable=0;fillColor=none;top=0;left=0;bottom=0;right=0;align=left;spacingLeft=6;overflow=hidden;" parent="ElQEqkokP7DGrJVSCs05-8" vertex="1">
                    <mxGeometry x="220" width="130" height="30" as="geometry">
                        <mxRectangle width="130" height="30" as="alternateBounds"/>
                    </mxGeometry>
                </mxCell>
                <mxCell id="ElQEqkokP7DGrJVSCs05-11" value="" style="shape=tableRow;horizontal=0;startSize=0;swimlaneHead=0;swimlaneBody=0;fillColor=none;collapsible=0;dropTarget=0;points=[[0,0.5],[1,0.5]];portConstraint=eastwest;top=0;left=0;right=0;bottom=0;" parent="ElQEqkokP7DGrJVSCs05-4" vertex="1">
                    <mxGeometry y="90" width="350" height="30" as="geometry"/>
                </mxCell>
                <mxCell id="ElQEqkokP7DGrJVSCs05-12" value="" style="shape=partialRectangle;connectable=0;fillColor=none;top=0;left=0;bottom=0;right=0;editable=1;overflow=hidden;" parent="ElQEqkokP7DGrJVSCs05-11" vertex="1">
                    <mxGeometry width="30" height="30" as="geometry">
                        <mxRectangle width="30" height="30" as="alternateBounds"/>
                    </mxGeometry>
                </mxCell>
                <mxCell id="ElQEqkokP7DGrJVSCs05-13" value="mail_address" style="shape=partialRectangle;connectable=0;fillColor=none;top=0;left=0;bottom=0;right=0;align=left;spacingLeft=6;overflow=hidden;" parent="ElQEqkokP7DGrJVSCs05-11" vertex="1">
                    <mxGeometry x="30" width="90" height="30" as="geometry">
                        <mxRectangle width="90" height="30" as="alternateBounds"/>
                    </mxGeometry>
                </mxCell>
                <mxCell id="ElQEqkokP7DGrJVSCs05-22" value="VARCHAR(256)" style="shape=partialRectangle;connectable=0;fillColor=none;top=0;left=0;bottom=0;right=0;align=left;spacingLeft=6;overflow=hidden;" parent="ElQEqkokP7DGrJVSCs05-11" vertex="1">
                    <mxGeometry x="120" width="100" height="30" as="geometry">
                        <mxRectangle width="100" height="30" as="alternateBounds"/>
                    </mxGeometry>
                </mxCell>
                <mxCell id="ElQEqkokP7DGrJVSCs05-26" value="NOT NULL / UNIQUE" style="shape=partialRectangle;connectable=0;fillColor=none;top=0;left=0;bottom=0;right=0;align=left;spacingLeft=6;overflow=hidden;" parent="ElQEqkokP7DGrJVSCs05-11" vertex="1">
                    <mxGeometry x="220" width="130" height="30" as="geometry">
                        <mxRectangle width="130" height="30" as="alternateBounds"/>
                    </mxGeometry>
                </mxCell>
                <mxCell id="ElQEqkokP7DGrJVSCs05-14" value="" style="shape=tableRow;horizontal=0;startSize=0;swimlaneHead=0;swimlaneBody=0;fillColor=none;collapsible=0;dropTarget=0;points=[[0,0.5],[1,0.5]];portConstraint=eastwest;top=0;left=0;right=0;bottom=0;" parent="ElQEqkokP7DGrJVSCs05-4" vertex="1">
                    <mxGeometry y="120" width="350" height="30" as="geometry"/>
                </mxCell>
                <mxCell id="ElQEqkokP7DGrJVSCs05-15" value="" style="shape=partialRectangle;connectable=0;fillColor=none;top=0;left=0;bottom=0;right=0;editable=1;overflow=hidden;" parent="ElQEqkokP7DGrJVSCs05-14" vertex="1">
                    <mxGeometry width="30" height="30" as="geometry">
                        <mxRectangle width="30" height="30" as="alternateBounds"/>
                    </mxGeometry>
                </mxCell>
                <mxCell id="ElQEqkokP7DGrJVSCs05-16" value="pass" style="shape=partialRectangle;connectable=0;fillColor=none;top=0;left=0;bottom=0;right=0;align=left;spacingLeft=6;overflow=hidden;" parent="ElQEqkokP7DGrJVSCs05-14" vertex="1">
                    <mxGeometry x="30" width="90" height="30" as="geometry">
                        <mxRectangle width="90" height="30" as="alternateBounds"/>
                    </mxGeometry>
                </mxCell>
                <mxCell id="ElQEqkokP7DGrJVSCs05-23" value="VARCHAR(20)" style="shape=partialRectangle;connectable=0;fillColor=none;top=0;left=0;bottom=0;right=0;align=left;spacingLeft=6;overflow=hidden;" parent="ElQEqkokP7DGrJVSCs05-14" vertex="1">
                    <mxGeometry x="120" width="100" height="30" as="geometry">
                        <mxRectangle width="100" height="30" as="alternateBounds"/>
                    </mxGeometry>
                </mxCell>
                <mxCell id="ElQEqkokP7DGrJVSCs05-27" value="NOT NULL" style="shape=partialRectangle;connectable=0;fillColor=none;top=0;left=0;bottom=0;right=0;align=left;spacingLeft=6;overflow=hidden;" parent="ElQEqkokP7DGrJVSCs05-14" vertex="1">
                    <mxGeometry x="220" width="130" height="30" as="geometry">
                        <mxRectangle width="130" height="30" as="alternateBounds"/>
                    </mxGeometry>
                </mxCell>
                <mxCell id="ElQEqkokP7DGrJVSCs05-33" style="shape=tableRow;horizontal=0;startSize=0;swimlaneHead=0;swimlaneBody=0;fillColor=none;collapsible=0;dropTarget=0;points=[[0,0.5],[1,0.5]];portConstraint=eastwest;top=0;left=0;right=0;bottom=0;" parent="ElQEqkokP7DGrJVSCs05-4" vertex="1">
                    <mxGeometry y="150" width="350" height="30" as="geometry"/>
                </mxCell>
                <mxCell id="ElQEqkokP7DGrJVSCs05-34" style="shape=partialRectangle;connectable=0;fillColor=none;top=0;left=0;bottom=0;right=0;editable=1;overflow=hidden;" parent="ElQEqkokP7DGrJVSCs05-33" vertex="1">
                    <mxGeometry width="30" height="30" as="geometry">
                        <mxRectangle width="30" height="30" as="alternateBounds"/>
                    </mxGeometry>
                </mxCell>
                <mxCell id="ElQEqkokP7DGrJVSCs05-35" value="pass_confirm" style="shape=partialRectangle;connectable=0;fillColor=none;top=0;left=0;bottom=0;right=0;align=left;spacingLeft=6;overflow=hidden;" parent="ElQEqkokP7DGrJVSCs05-33" vertex="1">
                    <mxGeometry x="30" width="90" height="30" as="geometry">
                        <mxRectangle width="90" height="30" as="alternateBounds"/>
                    </mxGeometry>
                </mxCell>
                <mxCell id="ElQEqkokP7DGrJVSCs05-36" value="VARCHAR(20)" style="shape=partialRectangle;connectable=0;fillColor=none;top=0;left=0;bottom=0;right=0;align=left;spacingLeft=6;overflow=hidden;" parent="ElQEqkokP7DGrJVSCs05-33" vertex="1">
                    <mxGeometry x="120" width="100" height="30" as="geometry">
                        <mxRectangle width="100" height="30" as="alternateBounds"/>
                    </mxGeometry>
                </mxCell>
                <mxCell id="ElQEqkokP7DGrJVSCs05-37" value="NOT NULL" style="shape=partialRectangle;connectable=0;fillColor=none;top=0;left=0;bottom=0;right=0;align=left;spacingLeft=6;overflow=hidden;" parent="ElQEqkokP7DGrJVSCs05-33" vertex="1">
                    <mxGeometry x="220" width="130" height="30" as="geometry">
                        <mxRectangle width="130" height="30" as="alternateBounds"/>
                    </mxGeometry>
                </mxCell>
                <mxCell id="ElQEqkokP7DGrJVSCs05-28" style="shape=tableRow;horizontal=0;startSize=0;swimlaneHead=0;swimlaneBody=0;fillColor=none;collapsible=0;dropTarget=0;points=[[0,0.5],[1,0.5]];portConstraint=eastwest;top=0;left=0;right=0;bottom=0;" parent="ElQEqkokP7DGrJVSCs05-4" vertex="1">
                    <mxGeometry y="180" width="350" height="30" as="geometry"/>
                </mxCell>
                <mxCell id="ElQEqkokP7DGrJVSCs05-29" style="shape=partialRectangle;connectable=0;fillColor=none;top=0;left=0;bottom=0;right=0;editable=1;overflow=hidden;" parent="ElQEqkokP7DGrJVSCs05-28" vertex="1">
                    <mxGeometry width="30" height="30" as="geometry">
                        <mxRectangle width="30" height="30" as="alternateBounds"/>
                    </mxGeometry>
                </mxCell>
                <mxCell id="ElQEqkokP7DGrJVSCs05-30" style="shape=partialRectangle;connectable=0;fillColor=none;top=0;left=0;bottom=0;right=0;align=left;spacingLeft=6;overflow=hidden;" parent="ElQEqkokP7DGrJVSCs05-28" vertex="1">
                    <mxGeometry x="30" width="90" height="30" as="geometry">
                        <mxRectangle width="90" height="30" as="alternateBounds"/>
                    </mxGeometry>
                </mxCell>
                <mxCell id="ElQEqkokP7DGrJVSCs05-31" style="shape=partialRectangle;connectable=0;fillColor=none;top=0;left=0;bottom=0;right=0;align=left;spacingLeft=6;overflow=hidden;" parent="ElQEqkokP7DGrJVSCs05-28" vertex="1">
                    <mxGeometry x="120" width="100" height="30" as="geometry">
                        <mxRectangle width="100" height="30" as="alternateBounds"/>
                    </mxGeometry>
                </mxCell>
                <mxCell id="ElQEqkokP7DGrJVSCs05-32" style="shape=partialRectangle;connectable=0;fillColor=none;top=0;left=0;bottom=0;right=0;align=left;spacingLeft=6;overflow=hidden;" parent="ElQEqkokP7DGrJVSCs05-28" vertex="1">
                    <mxGeometry x="220" width="130" height="30" as="geometry">
                        <mxRectangle width="130" height="30" as="alternateBounds"/>
                    </mxGeometry>
                </mxCell>
                <mxCell id="ElQEqkokP7DGrJVSCs05-39" value="投稿内容テーブル" style="text;strokeColor=none;align=left;fillColor=none;html=1;verticalAlign=middle;whiteSpace=wrap;rounded=0;" parent="1" vertex="1">
                    <mxGeometry x="500" y="30" width="110" height="30" as="geometry"/>
                </mxCell>
                <mxCell id="ElQEqkokP7DGrJVSCs05-40" value="post_item" style="shape=table;startSize=30;container=1;collapsible=1;childLayout=tableLayout;fixedRows=1;rowLines=0;fontStyle=1;align=center;resizeLast=1;rounded=1;" parent="1" vertex="1">
                    <mxGeometry x="500" y="60" width="420" height="180" as="geometry"/>
                </mxCell>
                <mxCell id="ElQEqkokP7DGrJVSCs05-41" value="" style="shape=tableRow;horizontal=0;startSize=0;swimlaneHead=0;swimlaneBody=0;fillColor=none;collapsible=0;dropTarget=0;points=[[0,0.5],[1,0.5]];portConstraint=eastwest;top=0;left=0;right=0;bottom=1;" parent="ElQEqkokP7DGrJVSCs05-40" vertex="1">
                    <mxGeometry y="30" width="420" height="30" as="geometry"/>
                </mxCell>
                <mxCell id="ElQEqkokP7DGrJVSCs05-42" value="PK" style="shape=partialRectangle;connectable=0;fillColor=none;top=0;left=0;bottom=0;right=0;fontStyle=1;overflow=hidden;" parent="ElQEqkokP7DGrJVSCs05-41" vertex="1">
                    <mxGeometry width="30" height="30" as="geometry">
                        <mxRectangle width="30" height="30" as="alternateBounds"/>
                    </mxGeometry>
                </mxCell>
                <mxCell id="ElQEqkokP7DGrJVSCs05-43" value="post_id" style="shape=partialRectangle;connectable=0;fillColor=none;top=0;left=0;bottom=0;right=0;align=left;spacingLeft=6;fontStyle=5;overflow=hidden;" parent="ElQEqkokP7DGrJVSCs05-41" vertex="1">
                    <mxGeometry x="30" width="90" height="30" as="geometry">
                        <mxRectangle width="90" height="30" as="alternateBounds"/>
                    </mxGeometry>
                </mxCell>
                <mxCell id="ElQEqkokP7DGrJVSCs05-44" value="INTEGER" style="shape=partialRectangle;connectable=0;fillColor=none;top=0;left=0;bottom=0;right=0;align=left;spacingLeft=6;fontStyle=5;overflow=hidden;" parent="ElQEqkokP7DGrJVSCs05-41" vertex="1">
                    <mxGeometry x="120" width="100" height="30" as="geometry">
                        <mxRectangle width="100" height="30" as="alternateBounds"/>
                    </mxGeometry>
                </mxCell>
                <mxCell id="ElQEqkokP7DGrJVSCs05-45" value="PRIMARY KEY" style="shape=partialRectangle;connectable=0;fillColor=none;top=0;left=0;bottom=0;right=0;align=left;spacingLeft=6;fontStyle=5;overflow=hidden;" parent="ElQEqkokP7DGrJVSCs05-41" vertex="1">
                    <mxGeometry x="220" width="200" height="30" as="geometry">
                        <mxRectangle width="200" height="30" as="alternateBounds"/>
                    </mxGeometry>
                </mxCell>
                <mxCell id="ElQEqkokP7DGrJVSCs05-72" style="shape=tableRow;horizontal=0;startSize=0;swimlaneHead=0;swimlaneBody=0;fillColor=none;collapsible=0;dropTarget=0;points=[[0,0.5],[1,0.5]];portConstraint=eastwest;top=0;left=0;right=0;bottom=1;" parent="ElQEqkokP7DGrJVSCs05-40" vertex="1">
                    <mxGeometry y="60" width="420" height="30" as="geometry"/>
                </mxCell>
                <mxCell id="ElQEqkokP7DGrJVSCs05-73" value="FK" style="shape=partialRectangle;connectable=0;fillColor=none;top=0;left=0;bottom=0;right=0;fontStyle=0;overflow=hidden;" parent="ElQEqkokP7DGrJVSCs05-72" vertex="1">
                    <mxGeometry width="30" height="30" as="geometry">
                        <mxRectangle width="30" height="30" as="alternateBounds"/>
                    </mxGeometry>
                </mxCell>
                <mxCell id="ElQEqkokP7DGrJVSCs05-74" value="user_id" style="shape=partialRectangle;connectable=0;fillColor=none;top=0;left=0;bottom=0;right=0;align=left;spacingLeft=6;fontStyle=0;overflow=hidden;" parent="ElQEqkokP7DGrJVSCs05-72" vertex="1">
                    <mxGeometry x="30" width="90" height="30" as="geometry">
                        <mxRectangle width="90" height="30" as="alternateBounds"/>
                    </mxGeometry>
                </mxCell>
                <mxCell id="ElQEqkokP7DGrJVSCs05-75" value="VARCHAR(20)" style="shape=partialRectangle;connectable=0;fillColor=none;top=0;left=0;bottom=0;right=0;align=left;spacingLeft=6;fontStyle=0;overflow=hidden;" parent="ElQEqkokP7DGrJVSCs05-72" vertex="1">
                    <mxGeometry x="120" width="100" height="30" as="geometry">
                        <mxRectangle width="100" height="30" as="alternateBounds"/>
                    </mxGeometry>
                </mxCell>
                <mxCell id="ElQEqkokP7DGrJVSCs05-76" value="NOT NULL / FOREIGN KEY" style="shape=partialRectangle;connectable=0;fillColor=none;top=0;left=0;bottom=0;right=0;align=left;spacingLeft=6;fontStyle=0;overflow=hidden;" parent="ElQEqkokP7DGrJVSCs05-72" vertex="1">
                    <mxGeometry x="220" width="200" height="30" as="geometry">
                        <mxRectangle width="200" height="30" as="alternateBounds"/>
                    </mxGeometry>
                </mxCell>
                <mxCell id="ElQEqkokP7DGrJVSCs05-51" value="" style="shape=tableRow;horizontal=0;startSize=0;swimlaneHead=0;swimlaneBody=0;fillColor=none;collapsible=0;dropTarget=0;points=[[0,0.5],[1,0.5]];portConstraint=eastwest;top=0;left=0;right=0;bottom=0;" parent="ElQEqkokP7DGrJVSCs05-40" vertex="1">
                    <mxGeometry y="90" width="420" height="30" as="geometry"/>
                </mxCell>
                <mxCell id="ElQEqkokP7DGrJVSCs05-52" value="" style="shape=partialRectangle;connectable=0;fillColor=none;top=0;left=0;bottom=0;right=0;editable=1;overflow=hidden;" parent="ElQEqkokP7DGrJVSCs05-51" vertex="1">
                    <mxGeometry width="30" height="30" as="geometry">
                        <mxRectangle width="30" height="30" as="alternateBounds"/>
                    </mxGeometry>
                </mxCell>
                <mxCell id="ElQEqkokP7DGrJVSCs05-53" value="post_date" style="shape=partialRectangle;connectable=0;fillColor=none;top=0;left=0;bottom=0;right=0;align=left;spacingLeft=6;overflow=hidden;" parent="ElQEqkokP7DGrJVSCs05-51" vertex="1">
                    <mxGeometry x="30" width="90" height="30" as="geometry">
                        <mxRectangle width="90" height="30" as="alternateBounds"/>
                    </mxGeometry>
                </mxCell>
                <mxCell id="ElQEqkokP7DGrJVSCs05-54" value="TIMESTAMP" style="shape=partialRectangle;connectable=0;fillColor=none;top=0;left=0;bottom=0;right=0;align=left;spacingLeft=6;overflow=hidden;" parent="ElQEqkokP7DGrJVSCs05-51" vertex="1">
                    <mxGeometry x="120" width="100" height="30" as="geometry">
                        <mxRectangle width="100" height="30" as="alternateBounds"/>
                    </mxGeometry>
                </mxCell>
                <mxCell id="ElQEqkokP7DGrJVSCs05-55" value="DEFAULT = 2000-01-01 00:00:00" style="shape=partialRectangle;connectable=0;fillColor=none;top=0;left=0;bottom=0;right=0;align=left;spacingLeft=6;overflow=hidden;" parent="ElQEqkokP7DGrJVSCs05-51" vertex="1">
                    <mxGeometry x="220" width="200" height="30" as="geometry">
                        <mxRectangle width="200" height="30" as="alternateBounds"/>
                    </mxGeometry>
                </mxCell>
                <mxCell id="ElQEqkokP7DGrJVSCs05-56" value="" style="shape=tableRow;horizontal=0;startSize=0;swimlaneHead=0;swimlaneBody=0;fillColor=none;collapsible=0;dropTarget=0;points=[[0,0.5],[1,0.5]];portConstraint=eastwest;top=0;left=0;right=0;bottom=0;" parent="ElQEqkokP7DGrJVSCs05-40" vertex="1">
                    <mxGeometry y="120" width="420" height="30" as="geometry"/>
                </mxCell>
                <mxCell id="ElQEqkokP7DGrJVSCs05-57" value="" style="shape=partialRectangle;connectable=0;fillColor=none;top=0;left=0;bottom=0;right=0;editable=1;overflow=hidden;" parent="ElQEqkokP7DGrJVSCs05-56" vertex="1">
                    <mxGeometry width="30" height="30" as="geometry">
                        <mxRectangle width="30" height="30" as="alternateBounds"/>
                    </mxGeometry>
                </mxCell>
                <mxCell id="ElQEqkokP7DGrJVSCs05-58" value="caption" style="shape=partialRectangle;connectable=0;fillColor=none;top=0;left=0;bottom=0;right=0;align=left;spacingLeft=6;overflow=hidden;" parent="ElQEqkokP7DGrJVSCs05-56" vertex="1">
                    <mxGeometry x="30" width="90" height="30" as="geometry">
                        <mxRectangle width="90" height="30" as="alternateBounds"/>
                    </mxGeometry>
                </mxCell>
                <mxCell id="ElQEqkokP7DGrJVSCs05-59" value="TEXT" style="shape=partialRectangle;connectable=0;fillColor=none;top=0;left=0;bottom=0;right=0;align=left;spacingLeft=6;overflow=hidden;" parent="ElQEqkokP7DGrJVSCs05-56" vertex="1">
                    <mxGeometry x="120" width="100" height="30" as="geometry">
                        <mxRectangle width="100" height="30" as="alternateBounds"/>
                    </mxGeometry>
                </mxCell>
                <mxCell id="ElQEqkokP7DGrJVSCs05-60" value="" style="shape=partialRectangle;connectable=0;fillColor=none;top=0;left=0;bottom=0;right=0;align=left;spacingLeft=6;overflow=hidden;" parent="ElQEqkokP7DGrJVSCs05-56" vertex="1">
                    <mxGeometry x="220" width="200" height="30" as="geometry">
                        <mxRectangle width="200" height="30" as="alternateBounds"/>
                    </mxGeometry>
                </mxCell>
                <mxCell id="ElQEqkokP7DGrJVSCs05-66" style="shape=tableRow;horizontal=0;startSize=0;swimlaneHead=0;swimlaneBody=0;fillColor=none;collapsible=0;dropTarget=0;points=[[0,0.5],[1,0.5]];portConstraint=eastwest;top=0;left=0;right=0;bottom=0;" parent="ElQEqkokP7DGrJVSCs05-40" vertex="1">
                    <mxGeometry y="150" width="420" height="30" as="geometry"/>
                </mxCell>
                <mxCell id="ElQEqkokP7DGrJVSCs05-67" style="shape=partialRectangle;connectable=0;fillColor=none;top=0;left=0;bottom=0;right=0;editable=1;overflow=hidden;" parent="ElQEqkokP7DGrJVSCs05-66" vertex="1">
                    <mxGeometry width="30" height="30" as="geometry">
                        <mxRectangle width="30" height="30" as="alternateBounds"/>
                    </mxGeometry>
                </mxCell>
                <mxCell id="ElQEqkokP7DGrJVSCs05-68" style="shape=partialRectangle;connectable=0;fillColor=none;top=0;left=0;bottom=0;right=0;align=left;spacingLeft=6;overflow=hidden;" parent="ElQEqkokP7DGrJVSCs05-66" vertex="1">
                    <mxGeometry x="30" width="90" height="30" as="geometry">
                        <mxRectangle width="90" height="30" as="alternateBounds"/>
                    </mxGeometry>
                </mxCell>
                <mxCell id="ElQEqkokP7DGrJVSCs05-69" style="shape=partialRectangle;connectable=0;fillColor=none;top=0;left=0;bottom=0;right=0;align=left;spacingLeft=6;overflow=hidden;" parent="ElQEqkokP7DGrJVSCs05-66" vertex="1">
                    <mxGeometry x="120" width="100" height="30" as="geometry">
                        <mxRectangle width="100" height="30" as="alternateBounds"/>
                    </mxGeometry>
                </mxCell>
                <mxCell id="ElQEqkokP7DGrJVSCs05-70" style="shape=partialRectangle;connectable=0;fillColor=none;top=0;left=0;bottom=0;right=0;align=left;spacingLeft=6;overflow=hidden;" parent="ElQEqkokP7DGrJVSCs05-66" vertex="1">
                    <mxGeometry x="220" width="200" height="30" as="geometry">
                        <mxRectangle width="200" height="30" as="alternateBounds"/>
                    </mxGeometry>
                </mxCell>
                <mxCell id="ElQEqkokP7DGrJVSCs05-77" value="" style="fontSize=12;html=1;endArrow=ERzeroToMany;endFill=0;startArrow=ERone;startFill=0;rounded=0;elbow=vertical;entryX=0;entryY=0.5;entryDx=0;entryDy=0;exitX=1;exitY=0.5;exitDx=0;exitDy=0;" parent="1" source="ElQEqkokP7DGrJVSCs05-11" target="ElQEqkokP7DGrJVSCs05-51" edge="1">
                    <mxGeometry width="100" height="100" relative="1" as="geometry">
                        <mxPoint x="390.0000000000002" y="192" as="sourcePoint"/>
                        <mxPoint x="550" y="20" as="targetPoint"/>
                    </mxGeometry>
                </mxCell>
                <mxCell id="ElQEqkokP7DGrJVSCs05-79" value="投稿カテゴリーテーブル" style="text;strokeColor=none;align=left;fillColor=none;html=1;verticalAlign=middle;whiteSpace=wrap;rounded=0;" parent="1" vertex="1">
                    <mxGeometry x="1000" y="30" width="150" height="30" as="geometry"/>
                </mxCell>
                <mxCell id="ElQEqkokP7DGrJVSCs05-80" value="post_category" style="shape=table;startSize=30;container=1;collapsible=1;childLayout=tableLayout;fixedRows=1;rowLines=0;fontStyle=1;align=center;resizeLast=1;" parent="1" vertex="1">
                    <mxGeometry x="1000" y="60" width="450" height="180" as="geometry"/>
                </mxCell>
                <mxCell id="ElQEqkokP7DGrJVSCs05-81" value="" style="shape=tableRow;horizontal=0;startSize=0;swimlaneHead=0;swimlaneBody=0;fillColor=none;collapsible=0;dropTarget=0;points=[[0,0.5],[1,0.5]];portConstraint=eastwest;top=0;left=0;right=0;bottom=1;" parent="ElQEqkokP7DGrJVSCs05-80" vertex="1">
                    <mxGeometry y="30" width="450" height="30" as="geometry"/>
                </mxCell>
                <mxCell id="ElQEqkokP7DGrJVSCs05-82" value="PK" style="shape=partialRectangle;connectable=0;fillColor=none;top=0;left=0;bottom=0;right=0;fontStyle=1;overflow=hidden;" parent="ElQEqkokP7DGrJVSCs05-81" vertex="1">
                    <mxGeometry width="30" height="30" as="geometry">
                        <mxRectangle width="30" height="30" as="alternateBounds"/>
                    </mxGeometry>
                </mxCell>
                <mxCell id="ElQEqkokP7DGrJVSCs05-83" value="post_category_id" style="shape=partialRectangle;connectable=0;fillColor=none;top=0;left=0;bottom=0;right=0;align=left;spacingLeft=6;fontStyle=5;overflow=hidden;" parent="ElQEqkokP7DGrJVSCs05-81" vertex="1">
                    <mxGeometry x="30" width="120" height="30" as="geometry">
                        <mxRectangle width="120" height="30" as="alternateBounds"/>
                    </mxGeometry>
                </mxCell>
                <mxCell id="ElQEqkokP7DGrJVSCs05-84" value="INTEGER" style="shape=partialRectangle;connectable=0;fillColor=none;top=0;left=0;bottom=0;right=0;align=left;spacingLeft=6;fontStyle=5;overflow=hidden;" parent="ElQEqkokP7DGrJVSCs05-81" vertex="1">
                    <mxGeometry x="150" width="99.99999999999977" height="30" as="geometry">
                        <mxRectangle width="99.99999999999977" height="30" as="alternateBounds"/>
                    </mxGeometry>
                </mxCell>
                <mxCell id="ElQEqkokP7DGrJVSCs05-85" value="PRIMARY KEY" style="shape=partialRectangle;connectable=0;fillColor=none;top=0;left=0;bottom=0;right=0;align=left;spacingLeft=6;fontStyle=5;overflow=hidden;" parent="ElQEqkokP7DGrJVSCs05-81" vertex="1">
                    <mxGeometry x="249.99999999999977" width="200.00000000000023" height="30" as="geometry">
                        <mxRectangle width="200.00000000000023" height="30" as="alternateBounds"/>
                    </mxGeometry>
                </mxCell>
                <mxCell id="ElQEqkokP7DGrJVSCs05-86" style="shape=tableRow;horizontal=0;startSize=0;swimlaneHead=0;swimlaneBody=0;fillColor=none;collapsible=0;dropTarget=0;points=[[0,0.5],[1,0.5]];portConstraint=eastwest;top=0;left=0;right=0;bottom=1;strokeColor=none;" parent="ElQEqkokP7DGrJVSCs05-80" vertex="1">
                    <mxGeometry y="60" width="450" height="30" as="geometry"/>
                </mxCell>
                <mxCell id="ElQEqkokP7DGrJVSCs05-87" value="FK" style="shape=partialRectangle;connectable=0;fillColor=none;top=0;left=0;bottom=0;right=0;fontStyle=0;overflow=hidden;" parent="ElQEqkokP7DGrJVSCs05-86" vertex="1">
                    <mxGeometry width="30" height="30" as="geometry">
                        <mxRectangle width="30" height="30" as="alternateBounds"/>
                    </mxGeometry>
                </mxCell>
                <mxCell id="ElQEqkokP7DGrJVSCs05-88" value="user_id" style="shape=partialRectangle;connectable=0;fillColor=none;top=0;left=0;bottom=0;right=0;align=left;spacingLeft=6;fontStyle=0;overflow=hidden;strokeColor=default;" parent="ElQEqkokP7DGrJVSCs05-86" vertex="1">
                    <mxGeometry x="30" width="120" height="30" as="geometry">
                        <mxRectangle width="120" height="30" as="alternateBounds"/>
                    </mxGeometry>
                </mxCell>
                <mxCell id="ElQEqkokP7DGrJVSCs05-89" value="VARCHAR(20)" style="shape=partialRectangle;connectable=0;fillColor=none;top=0;left=0;bottom=0;right=0;align=left;spacingLeft=6;fontStyle=0;overflow=hidden;" parent="ElQEqkokP7DGrJVSCs05-86" vertex="1">
                    <mxGeometry x="150" width="99.99999999999977" height="30" as="geometry">
                        <mxRectangle width="99.99999999999977" height="30" as="alternateBounds"/>
                    </mxGeometry>
                </mxCell>
                <mxCell id="ElQEqkokP7DGrJVSCs05-90" value="NOT NULL / FOREIGN KEY" style="shape=partialRectangle;connectable=0;fillColor=none;top=0;left=0;bottom=0;right=0;align=left;spacingLeft=6;fontStyle=0;overflow=hidden;" parent="ElQEqkokP7DGrJVSCs05-86" vertex="1">
                    <mxGeometry x="249.99999999999977" width="200.00000000000023" height="30" as="geometry">
                        <mxRectangle width="200.00000000000023" height="30" as="alternateBounds"/>
                    </mxGeometry>
                </mxCell>
                <mxCell id="ElQEqkokP7DGrJVSCs05-118" style="shape=tableRow;horizontal=0;startSize=0;swimlaneHead=0;swimlaneBody=0;fillColor=none;collapsible=0;dropTarget=0;points=[[0,0.5],[1,0.5]];portConstraint=eastwest;top=0;left=0;right=0;bottom=1;" parent="ElQEqkokP7DGrJVSCs05-80" vertex="1">
                    <mxGeometry y="90" width="450" height="30" as="geometry"/>
                </mxCell>
                <mxCell id="ElQEqkokP7DGrJVSCs05-119" value="FK" style="shape=partialRectangle;connectable=0;fillColor=none;top=0;left=0;bottom=0;right=0;fontStyle=0;overflow=hidden;" parent="ElQEqkokP7DGrJVSCs05-118" vertex="1">
                    <mxGeometry width="30" height="30" as="geometry">
                        <mxRectangle width="30" height="30" as="alternateBounds"/>
                    </mxGeometry>
                </mxCell>
                <mxCell id="ElQEqkokP7DGrJVSCs05-120" value="post_id" style="shape=partialRectangle;connectable=0;fillColor=none;top=0;left=0;bottom=0;right=0;align=left;spacingLeft=6;fontStyle=0;overflow=hidden;" parent="ElQEqkokP7DGrJVSCs05-118" vertex="1">
                    <mxGeometry x="30" width="120" height="30" as="geometry">
                        <mxRectangle width="120" height="30" as="alternateBounds"/>
                    </mxGeometry>
                </mxCell>
                <mxCell id="ElQEqkokP7DGrJVSCs05-121" value="INTEGER" style="shape=partialRectangle;connectable=0;fillColor=none;top=0;left=0;bottom=0;right=0;align=left;spacingLeft=6;fontStyle=0;overflow=hidden;" parent="ElQEqkokP7DGrJVSCs05-118" vertex="1">
                    <mxGeometry x="150" width="99.99999999999977" height="30" as="geometry">
                        <mxRectangle width="99.99999999999977" height="30" as="alternateBounds"/>
                    </mxGeometry>
                </mxCell>
                <mxCell id="ElQEqkokP7DGrJVSCs05-122" value="NOT NULL / FOREIGN KEY" style="shape=partialRectangle;connectable=0;fillColor=none;top=0;left=0;bottom=0;right=0;align=left;spacingLeft=6;fontStyle=0;overflow=hidden;" parent="ElQEqkokP7DGrJVSCs05-118" vertex="1">
                    <mxGeometry x="249.99999999999977" width="200.00000000000023" height="30" as="geometry">
                        <mxRectangle width="200.00000000000023" height="30" as="alternateBounds"/>
                    </mxGeometry>
                </mxCell>
                <mxCell id="ElQEqkokP7DGrJVSCs05-91" value="" style="shape=tableRow;horizontal=0;startSize=0;swimlaneHead=0;swimlaneBody=0;fillColor=none;collapsible=0;dropTarget=0;points=[[0,0.5],[1,0.5]];portConstraint=eastwest;top=0;left=0;right=0;bottom=0;" parent="ElQEqkokP7DGrJVSCs05-80" vertex="1">
                    <mxGeometry y="120" width="450" height="30" as="geometry"/>
                </mxCell>
                <mxCell id="ElQEqkokP7DGrJVSCs05-92" value="" style="shape=partialRectangle;connectable=0;fillColor=none;top=0;left=0;bottom=0;right=0;editable=1;overflow=hidden;" parent="ElQEqkokP7DGrJVSCs05-91" vertex="1">
                    <mxGeometry width="30" height="30" as="geometry">
                        <mxRectangle width="30" height="30" as="alternateBounds"/>
                    </mxGeometry>
                </mxCell>
                <mxCell id="ElQEqkokP7DGrJVSCs05-93" value="category_name" style="shape=partialRectangle;connectable=0;fillColor=none;top=0;left=0;bottom=0;right=0;align=left;spacingLeft=6;overflow=hidden;" parent="ElQEqkokP7DGrJVSCs05-91" vertex="1">
                    <mxGeometry x="30" width="120" height="30" as="geometry">
                        <mxRectangle width="120" height="30" as="alternateBounds"/>
                    </mxGeometry>
                </mxCell>
                <mxCell id="ElQEqkokP7DGrJVSCs05-94" value="VARCHAR(30)" style="shape=partialRectangle;connectable=0;fillColor=none;top=0;left=0;bottom=0;right=0;align=left;spacingLeft=6;overflow=hidden;" parent="ElQEqkokP7DGrJVSCs05-91" vertex="1">
                    <mxGeometry x="150" width="99.99999999999977" height="30" as="geometry">
                        <mxRectangle width="99.99999999999977" height="30" as="alternateBounds"/>
                    </mxGeometry>
                </mxCell>
                <mxCell id="ElQEqkokP7DGrJVSCs05-95" value="NOT NULL /  DEFAUL = その他" style="shape=partialRectangle;connectable=0;fillColor=none;top=0;left=0;bottom=0;right=0;align=left;spacingLeft=6;overflow=hidden;" parent="ElQEqkokP7DGrJVSCs05-91" vertex="1">
                    <mxGeometry x="249.99999999999977" width="200.00000000000023" height="30" as="geometry">
                        <mxRectangle width="200.00000000000023" height="30" as="alternateBounds"/>
                    </mxGeometry>
                </mxCell>
                <mxCell id="ElQEqkokP7DGrJVSCs05-106" style="shape=tableRow;horizontal=0;startSize=0;swimlaneHead=0;swimlaneBody=0;fillColor=none;collapsible=0;dropTarget=0;points=[[0,0.5],[1,0.5]];portConstraint=eastwest;top=0;left=0;right=0;bottom=0;" parent="ElQEqkokP7DGrJVSCs05-80" vertex="1">
                    <mxGeometry y="150" width="450" height="30" as="geometry"/>
                </mxCell>
                <mxCell id="ElQEqkokP7DGrJVSCs05-107" style="shape=partialRectangle;connectable=0;fillColor=none;top=0;left=0;bottom=0;right=0;editable=1;overflow=hidden;" parent="ElQEqkokP7DGrJVSCs05-106" vertex="1">
                    <mxGeometry width="30" height="30" as="geometry">
                        <mxRectangle width="30" height="30" as="alternateBounds"/>
                    </mxGeometry>
                </mxCell>
                <mxCell id="ElQEqkokP7DGrJVSCs05-108" style="shape=partialRectangle;connectable=0;fillColor=none;top=0;left=0;bottom=0;right=0;align=left;spacingLeft=6;overflow=hidden;" parent="ElQEqkokP7DGrJVSCs05-106" vertex="1">
                    <mxGeometry x="30" width="120" height="30" as="geometry">
                        <mxRectangle width="120" height="30" as="alternateBounds"/>
                    </mxGeometry>
                </mxCell>
                <mxCell id="ElQEqkokP7DGrJVSCs05-109" style="shape=partialRectangle;connectable=0;fillColor=none;top=0;left=0;bottom=0;right=0;align=left;spacingLeft=6;overflow=hidden;" parent="ElQEqkokP7DGrJVSCs05-106" vertex="1">
                    <mxGeometry x="150" width="99.99999999999977" height="30" as="geometry">
                        <mxRectangle width="99.99999999999977" height="30" as="alternateBounds"/>
                    </mxGeometry>
                </mxCell>
                <mxCell id="ElQEqkokP7DGrJVSCs05-110" style="shape=partialRectangle;connectable=0;fillColor=none;top=0;left=0;bottom=0;right=0;align=left;spacingLeft=6;overflow=hidden;" parent="ElQEqkokP7DGrJVSCs05-106" vertex="1">
                    <mxGeometry x="249.99999999999977" width="200.00000000000023" height="30" as="geometry">
                        <mxRectangle width="200.00000000000023" height="30" as="alternateBounds"/>
                    </mxGeometry>
                </mxCell>
                <mxCell id="ElQEqkokP7DGrJVSCs05-112" value="" style="fontSize=12;html=1;endArrow=ERone;endFill=0;startArrow=ERone;startFill=0;rounded=0;elbow=vertical;entryX=0;entryY=0.5;entryDx=0;entryDy=0;exitX=1;exitY=0.5;exitDx=0;exitDy=0;" parent="1" source="ElQEqkokP7DGrJVSCs05-51" target="ElQEqkokP7DGrJVSCs05-118" edge="1">
                    <mxGeometry width="100" height="100" relative="1" as="geometry">
                        <mxPoint x="910" y="370" as="sourcePoint"/>
                        <mxPoint x="1020" y="370" as="targetPoint"/>
                    </mxGeometry>
                </mxCell>
                <mxCell id="ElQEqkokP7DGrJVSCs05-124" value="スタンプテーブル" style="text;strokeColor=none;align=left;fillColor=none;html=1;verticalAlign=middle;whiteSpace=wrap;rounded=0;" parent="1" vertex="1">
                    <mxGeometry x="510" y="300" width="110" height="30" as="geometry"/>
                </mxCell>
                <mxCell id="ElQEqkokP7DGrJVSCs05-125" value="stamp" style="shape=table;startSize=30;container=1;collapsible=1;childLayout=tableLayout;fixedRows=1;rowLines=0;fontStyle=1;align=center;resizeLast=1;" parent="1" vertex="1">
                    <mxGeometry x="510" y="330" width="420" height="210" as="geometry"/>
                </mxCell>
                <mxCell id="ElQEqkokP7DGrJVSCs05-126" value="" style="shape=tableRow;horizontal=0;startSize=0;swimlaneHead=0;swimlaneBody=0;fillColor=none;collapsible=0;dropTarget=0;points=[[0,0.5],[1,0.5]];portConstraint=eastwest;top=0;left=0;right=0;bottom=1;" parent="ElQEqkokP7DGrJVSCs05-125" vertex="1">
                    <mxGeometry y="30" width="420" height="30" as="geometry"/>
                </mxCell>
                <mxCell id="ElQEqkokP7DGrJVSCs05-127" value="PK" style="shape=partialRectangle;connectable=0;fillColor=none;top=0;left=0;bottom=0;right=0;fontStyle=1;overflow=hidden;" parent="ElQEqkokP7DGrJVSCs05-126" vertex="1">
                    <mxGeometry width="30" height="30" as="geometry">
                        <mxRectangle width="30" height="30" as="alternateBounds"/>
                    </mxGeometry>
                </mxCell>
                <mxCell id="ElQEqkokP7DGrJVSCs05-128" value="stamp_id" style="shape=partialRectangle;connectable=0;fillColor=none;top=0;left=0;bottom=0;right=0;align=left;spacingLeft=6;fontStyle=5;overflow=hidden;" parent="ElQEqkokP7DGrJVSCs05-126" vertex="1">
                    <mxGeometry x="30" width="90" height="30" as="geometry">
                        <mxRectangle width="90" height="30" as="alternateBounds"/>
                    </mxGeometry>
                </mxCell>
                <mxCell id="ElQEqkokP7DGrJVSCs05-129" value="INTEGER" style="shape=partialRectangle;connectable=0;fillColor=none;top=0;left=0;bottom=0;right=0;align=left;spacingLeft=6;fontStyle=5;overflow=hidden;" parent="ElQEqkokP7DGrJVSCs05-126" vertex="1">
                    <mxGeometry x="120" width="100" height="30" as="geometry">
                        <mxRectangle width="100" height="30" as="alternateBounds"/>
                    </mxGeometry>
                </mxCell>
                <mxCell id="ElQEqkokP7DGrJVSCs05-130" value="PRIMARY KEY" style="shape=partialRectangle;connectable=0;fillColor=none;top=0;left=0;bottom=0;right=0;align=left;spacingLeft=6;fontStyle=5;overflow=hidden;" parent="ElQEqkokP7DGrJVSCs05-126" vertex="1">
                    <mxGeometry x="220" width="200" height="30" as="geometry">
                        <mxRectangle width="200" height="30" as="alternateBounds"/>
                    </mxGeometry>
                </mxCell>
                <mxCell id="ElQEqkokP7DGrJVSCs05-131" style="shape=tableRow;horizontal=0;startSize=0;swimlaneHead=0;swimlaneBody=0;fillColor=none;collapsible=0;dropTarget=0;points=[[0,0.5],[1,0.5]];portConstraint=eastwest;top=0;left=0;right=0;bottom=1;strokeColor=none;" parent="ElQEqkokP7DGrJVSCs05-125" vertex="1">
                    <mxGeometry y="60" width="420" height="30" as="geometry"/>
                </mxCell>
                <mxCell id="ElQEqkokP7DGrJVSCs05-132" value="FK" style="shape=partialRectangle;connectable=0;fillColor=none;top=0;left=0;bottom=0;right=0;fontStyle=0;overflow=hidden;" parent="ElQEqkokP7DGrJVSCs05-131" vertex="1">
                    <mxGeometry width="30" height="30" as="geometry">
                        <mxRectangle width="30" height="30" as="alternateBounds"/>
                    </mxGeometry>
                </mxCell>
                <mxCell id="ElQEqkokP7DGrJVSCs05-133" value="user_id" style="shape=partialRectangle;connectable=0;fillColor=none;top=0;left=0;bottom=0;right=0;align=left;spacingLeft=6;fontStyle=0;overflow=hidden;" parent="ElQEqkokP7DGrJVSCs05-131" vertex="1">
                    <mxGeometry x="30" width="90" height="30" as="geometry">
                        <mxRectangle width="90" height="30" as="alternateBounds"/>
                    </mxGeometry>
                </mxCell>
                <mxCell id="ElQEqkokP7DGrJVSCs05-134" value="VARCHAR(20)" style="shape=partialRectangle;connectable=0;fillColor=none;top=0;left=0;bottom=0;right=0;align=left;spacingLeft=6;fontStyle=0;overflow=hidden;" parent="ElQEqkokP7DGrJVSCs05-131" vertex="1">
                    <mxGeometry x="120" width="100" height="30" as="geometry">
                        <mxRectangle width="100" height="30" as="alternateBounds"/>
                    </mxGeometry>
                </mxCell>
                <mxCell id="ElQEqkokP7DGrJVSCs05-135" value="NOT NULL / FOREIGN KEY" style="shape=partialRectangle;connectable=0;fillColor=none;top=0;left=0;bottom=0;right=0;align=left;spacingLeft=6;fontStyle=0;overflow=hidden;" parent="ElQEqkokP7DGrJVSCs05-131" vertex="1">
                    <mxGeometry x="220" width="200" height="30" as="geometry">
                        <mxRectangle width="200" height="30" as="alternateBounds"/>
                    </mxGeometry>
                </mxCell>
                <mxCell id="ElQEqkokP7DGrJVSCs05-162" style="shape=tableRow;horizontal=0;startSize=0;swimlaneHead=0;swimlaneBody=0;fillColor=none;collapsible=0;dropTarget=0;points=[[0,0.5],[1,0.5]];portConstraint=eastwest;top=0;left=0;right=0;bottom=1;" parent="ElQEqkokP7DGrJVSCs05-125" vertex="1">
                    <mxGeometry y="90" width="420" height="30" as="geometry"/>
                </mxCell>
                <mxCell id="ElQEqkokP7DGrJVSCs05-163" value="FK" style="shape=partialRectangle;connectable=0;fillColor=none;top=0;left=0;bottom=0;right=0;fontStyle=0;overflow=hidden;" parent="ElQEqkokP7DGrJVSCs05-162" vertex="1">
                    <mxGeometry width="30" height="30" as="geometry">
                        <mxRectangle width="30" height="30" as="alternateBounds"/>
                    </mxGeometry>
                </mxCell>
                <mxCell id="ElQEqkokP7DGrJVSCs05-164" value="post_id" style="shape=partialRectangle;connectable=0;fillColor=none;top=0;left=0;bottom=0;right=0;align=left;spacingLeft=6;fontStyle=0;overflow=hidden;" parent="ElQEqkokP7DGrJVSCs05-162" vertex="1">
                    <mxGeometry x="30" width="90" height="30" as="geometry">
                        <mxRectangle width="90" height="30" as="alternateBounds"/>
                    </mxGeometry>
                </mxCell>
                <mxCell id="ElQEqkokP7DGrJVSCs05-165" value="INTEGER" style="shape=partialRectangle;connectable=0;fillColor=none;top=0;left=0;bottom=0;right=0;align=left;spacingLeft=6;fontStyle=0;overflow=hidden;" parent="ElQEqkokP7DGrJVSCs05-162" vertex="1">
                    <mxGeometry x="120" width="100" height="30" as="geometry">
                        <mxRectangle width="100" height="30" as="alternateBounds"/>
                    </mxGeometry>
                </mxCell>
                <mxCell id="ElQEqkokP7DGrJVSCs05-166" value="NOT NULL / FOREIGN KEY" style="shape=partialRectangle;connectable=0;fillColor=none;top=0;left=0;bottom=0;right=0;align=left;spacingLeft=6;fontStyle=0;overflow=hidden;" parent="ElQEqkokP7DGrJVSCs05-162" vertex="1">
                    <mxGeometry x="220" width="200" height="30" as="geometry">
                        <mxRectangle width="200" height="30" as="alternateBounds"/>
                    </mxGeometry>
                </mxCell>
                <mxCell id="ElQEqkokP7DGrJVSCs05-136" value="" style="shape=tableRow;horizontal=0;startSize=0;swimlaneHead=0;swimlaneBody=0;fillColor=none;collapsible=0;dropTarget=0;points=[[0,0.5],[1,0.5]];portConstraint=eastwest;top=0;left=0;right=0;bottom=0;" parent="ElQEqkokP7DGrJVSCs05-125" vertex="1">
                    <mxGeometry y="120" width="420" height="30" as="geometry"/>
                </mxCell>
                <mxCell id="ElQEqkokP7DGrJVSCs05-137" value="" style="shape=partialRectangle;connectable=0;fillColor=none;top=0;left=0;bottom=0;right=0;editable=1;overflow=hidden;" parent="ElQEqkokP7DGrJVSCs05-136" vertex="1">
                    <mxGeometry width="30" height="30" as="geometry">
                        <mxRectangle width="30" height="30" as="alternateBounds"/>
                    </mxGeometry>
                </mxCell>
                <mxCell id="ElQEqkokP7DGrJVSCs05-138" value="stamp_name" style="shape=partialRectangle;connectable=0;fillColor=none;top=0;left=0;bottom=0;right=0;align=left;spacingLeft=6;overflow=hidden;" parent="ElQEqkokP7DGrJVSCs05-136" vertex="1">
                    <mxGeometry x="30" width="90" height="30" as="geometry">
                        <mxRectangle width="90" height="30" as="alternateBounds"/>
                    </mxGeometry>
                </mxCell>
                <mxCell id="ElQEqkokP7DGrJVSCs05-139" value="VARCHAR(30)" style="shape=partialRectangle;connectable=0;fillColor=none;top=0;left=0;bottom=0;right=0;align=left;spacingLeft=6;overflow=hidden;" parent="ElQEqkokP7DGrJVSCs05-136" vertex="1">
                    <mxGeometry x="120" width="100" height="30" as="geometry">
                        <mxRectangle width="100" height="30" as="alternateBounds"/>
                    </mxGeometry>
                </mxCell>
                <mxCell id="ElQEqkokP7DGrJVSCs05-140" value="DEFAULT = no name" style="shape=partialRectangle;connectable=0;fillColor=none;top=0;left=0;bottom=0;right=0;align=left;spacingLeft=6;overflow=hidden;" parent="ElQEqkokP7DGrJVSCs05-136" vertex="1">
                    <mxGeometry x="220" width="200" height="30" as="geometry">
                        <mxRectangle width="200" height="30" as="alternateBounds"/>
                    </mxGeometry>
                </mxCell>
                <mxCell id="ElQEqkokP7DGrJVSCs05-141" value="" style="shape=tableRow;horizontal=0;startSize=0;swimlaneHead=0;swimlaneBody=0;fillColor=none;collapsible=0;dropTarget=0;points=[[0,0.5],[1,0.5]];portConstraint=eastwest;top=0;left=0;right=0;bottom=0;" parent="ElQEqkokP7DGrJVSCs05-125" vertex="1">
                    <mxGeometry y="150" width="420" height="30" as="geometry"/>
                </mxCell>
                <mxCell id="ElQEqkokP7DGrJVSCs05-142" value="" style="shape=partialRectangle;connectable=0;fillColor=none;top=0;left=0;bottom=0;right=0;editable=1;overflow=hidden;" parent="ElQEqkokP7DGrJVSCs05-141" vertex="1">
                    <mxGeometry width="30" height="30" as="geometry">
                        <mxRectangle width="30" height="30" as="alternateBounds"/>
                    </mxGeometry>
                </mxCell>
                <mxCell id="ElQEqkokP7DGrJVSCs05-143" value="stamp_code" style="shape=partialRectangle;connectable=0;fillColor=none;top=0;left=0;bottom=0;right=0;align=left;spacingLeft=6;overflow=hidden;" parent="ElQEqkokP7DGrJVSCs05-141" vertex="1">
                    <mxGeometry x="30" width="90" height="30" as="geometry">
                        <mxRectangle width="90" height="30" as="alternateBounds"/>
                    </mxGeometry>
                </mxCell>
                <mxCell id="ElQEqkokP7DGrJVSCs05-144" value="VARCHAR(20)" style="shape=partialRectangle;connectable=0;fillColor=none;top=0;left=0;bottom=0;right=0;align=left;spacingLeft=6;overflow=hidden;" parent="ElQEqkokP7DGrJVSCs05-141" vertex="1">
                    <mxGeometry x="120" width="100" height="30" as="geometry">
                        <mxRectangle width="100" height="30" as="alternateBounds"/>
                    </mxGeometry>
                </mxCell>
                <mxCell id="ElQEqkokP7DGrJVSCs05-145" value="NOT NULL / DEFAULT = NONE" style="shape=partialRectangle;connectable=0;fillColor=none;top=0;left=0;bottom=0;right=0;align=left;spacingLeft=6;overflow=hidden;" parent="ElQEqkokP7DGrJVSCs05-141" vertex="1">
                    <mxGeometry x="220" width="200" height="30" as="geometry">
                        <mxRectangle width="200" height="30" as="alternateBounds"/>
                    </mxGeometry>
                </mxCell>
                <mxCell id="ElQEqkokP7DGrJVSCs05-146" style="shape=tableRow;horizontal=0;startSize=0;swimlaneHead=0;swimlaneBody=0;fillColor=none;collapsible=0;dropTarget=0;points=[[0,0.5],[1,0.5]];portConstraint=eastwest;top=0;left=0;right=0;bottom=0;" parent="ElQEqkokP7DGrJVSCs05-125" vertex="1">
                    <mxGeometry y="180" width="420" height="30" as="geometry"/>
                </mxCell>
                <mxCell id="ElQEqkokP7DGrJVSCs05-147" style="shape=partialRectangle;connectable=0;fillColor=none;top=0;left=0;bottom=0;right=0;editable=1;overflow=hidden;" parent="ElQEqkokP7DGrJVSCs05-146" vertex="1">
                    <mxGeometry width="30" height="30" as="geometry">
                        <mxRectangle width="30" height="30" as="alternateBounds"/>
                    </mxGeometry>
                </mxCell>
                <mxCell id="ElQEqkokP7DGrJVSCs05-148" style="shape=partialRectangle;connectable=0;fillColor=none;top=0;left=0;bottom=0;right=0;align=left;spacingLeft=6;overflow=hidden;" parent="ElQEqkokP7DGrJVSCs05-146" vertex="1">
                    <mxGeometry x="30" width="90" height="30" as="geometry">
                        <mxRectangle width="90" height="30" as="alternateBounds"/>
                    </mxGeometry>
                </mxCell>
                <mxCell id="ElQEqkokP7DGrJVSCs05-149" style="shape=partialRectangle;connectable=0;fillColor=none;top=0;left=0;bottom=0;right=0;align=left;spacingLeft=6;overflow=hidden;" parent="ElQEqkokP7DGrJVSCs05-146" vertex="1">
                    <mxGeometry x="120" width="100" height="30" as="geometry">
                        <mxRectangle width="100" height="30" as="alternateBounds"/>
                    </mxGeometry>
                </mxCell>
                <mxCell id="ElQEqkokP7DGrJVSCs05-150" style="shape=partialRectangle;connectable=0;fillColor=none;top=0;left=0;bottom=0;right=0;align=left;spacingLeft=6;overflow=hidden;" parent="ElQEqkokP7DGrJVSCs05-146" vertex="1">
                    <mxGeometry x="220" width="200" height="30" as="geometry">
                        <mxRectangle width="200" height="30" as="alternateBounds"/>
                    </mxGeometry>
                </mxCell>
                <mxCell id="ElQEqkokP7DGrJVSCs05-151" value="" style="fontSize=12;html=1;endArrow=ERoneToMany;endFill=0;startArrow=ERone;startFill=0;rounded=0;elbow=vertical;exitX=0.804;exitY=1.069;exitDx=0;exitDy=0;exitPerimeter=0;entryX=0;entryY=0.5;entryDx=0;entryDy=0;" parent="1" source="ElQEqkokP7DGrJVSCs05-28" target="ElQEqkokP7DGrJVSCs05-131" edge="1">
                    <mxGeometry width="100" height="100" relative="1" as="geometry">
                        <mxPoint x="290" y="320" as="sourcePoint"/>
                        <mxPoint x="450" y="370" as="targetPoint"/>
                    </mxGeometry>
                </mxCell>
                <mxCell id="ElQEqkokP7DGrJVSCs05-167" value="画像テーブル" style="text;strokeColor=none;align=left;fillColor=none;html=1;verticalAlign=middle;whiteSpace=wrap;rounded=0;" parent="1" vertex="1">
                    <mxGeometry x="1000" y="300" width="110" height="30" as="geometry"/>
                </mxCell>
                <mxCell id="ElQEqkokP7DGrJVSCs05-168" value="photo" style="shape=table;startSize=30;container=1;collapsible=1;childLayout=tableLayout;fixedRows=1;rowLines=0;fontStyle=1;align=center;resizeLast=1;rounded=1;" parent="1" vertex="1">
                    <mxGeometry x="1000" y="330" width="420" height="180" as="geometry"/>
                </mxCell>
                <mxCell id="ElQEqkokP7DGrJVSCs05-169" value="" style="shape=tableRow;horizontal=0;startSize=0;swimlaneHead=0;swimlaneBody=0;fillColor=none;collapsible=0;dropTarget=0;points=[[0,0.5],[1,0.5]];portConstraint=eastwest;top=0;left=0;right=0;bottom=1;" parent="ElQEqkokP7DGrJVSCs05-168" vertex="1">
                    <mxGeometry y="30" width="420" height="30" as="geometry"/>
                </mxCell>
                <mxCell id="ElQEqkokP7DGrJVSCs05-170" value="PK" style="shape=partialRectangle;connectable=0;fillColor=none;top=0;left=0;bottom=0;right=0;fontStyle=1;overflow=hidden;" parent="ElQEqkokP7DGrJVSCs05-169" vertex="1">
                    <mxGeometry width="30" height="30" as="geometry">
                        <mxRectangle width="30" height="30" as="alternateBounds"/>
                    </mxGeometry>
                </mxCell>
                <mxCell id="ElQEqkokP7DGrJVSCs05-171" value="picture_id" style="shape=partialRectangle;connectable=0;fillColor=none;top=0;left=0;bottom=0;right=0;align=left;spacingLeft=6;fontStyle=5;overflow=hidden;" parent="ElQEqkokP7DGrJVSCs05-169" vertex="1">
                    <mxGeometry x="30" width="90" height="30" as="geometry">
                        <mxRectangle width="90" height="30" as="alternateBounds"/>
                    </mxGeometry>
                </mxCell>
                <mxCell id="ElQEqkokP7DGrJVSCs05-172" value="INTEGER" style="shape=partialRectangle;connectable=0;fillColor=none;top=0;left=0;bottom=0;right=0;align=left;spacingLeft=6;fontStyle=5;overflow=hidden;" parent="ElQEqkokP7DGrJVSCs05-169" vertex="1">
                    <mxGeometry x="120" width="100" height="30" as="geometry">
                        <mxRectangle width="100" height="30" as="alternateBounds"/>
                    </mxGeometry>
                </mxCell>
                <mxCell id="ElQEqkokP7DGrJVSCs05-173" value="PRIMARY KEY" style="shape=partialRectangle;connectable=0;fillColor=none;top=0;left=0;bottom=0;right=0;align=left;spacingLeft=6;fontStyle=5;overflow=hidden;" parent="ElQEqkokP7DGrJVSCs05-169" vertex="1">
                    <mxGeometry x="220" width="200" height="30" as="geometry">
                        <mxRectangle width="200" height="30" as="alternateBounds"/>
                    </mxGeometry>
                </mxCell>
                <mxCell id="ElQEqkokP7DGrJVSCs05-174" style="shape=tableRow;horizontal=0;startSize=0;swimlaneHead=0;swimlaneBody=0;fillColor=none;collapsible=0;dropTarget=0;points=[[0,0.5],[1,0.5]];portConstraint=eastwest;top=0;left=0;right=0;bottom=1;strokeColor=none;" parent="ElQEqkokP7DGrJVSCs05-168" vertex="1">
                    <mxGeometry y="60" width="420" height="30" as="geometry"/>
                </mxCell>
                <mxCell id="ElQEqkokP7DGrJVSCs05-175" value="FK" style="shape=partialRectangle;connectable=0;fillColor=none;top=0;left=0;bottom=0;right=0;fontStyle=0;overflow=hidden;" parent="ElQEqkokP7DGrJVSCs05-174" vertex="1">
                    <mxGeometry width="30" height="30" as="geometry">
                        <mxRectangle width="30" height="30" as="alternateBounds"/>
                    </mxGeometry>
                </mxCell>
                <mxCell id="ElQEqkokP7DGrJVSCs05-176" value="user_id" style="shape=partialRectangle;connectable=0;fillColor=none;top=0;left=0;bottom=0;right=0;align=left;spacingLeft=6;fontStyle=0;overflow=hidden;" parent="ElQEqkokP7DGrJVSCs05-174" vertex="1">
                    <mxGeometry x="30" width="90" height="30" as="geometry">
                        <mxRectangle width="90" height="30" as="alternateBounds"/>
                    </mxGeometry>
                </mxCell>
                <mxCell id="ElQEqkokP7DGrJVSCs05-177" value="VARCHAR(20)" style="shape=partialRectangle;connectable=0;fillColor=none;top=0;left=0;bottom=0;right=0;align=left;spacingLeft=6;fontStyle=0;overflow=hidden;" parent="ElQEqkokP7DGrJVSCs05-174" vertex="1">
                    <mxGeometry x="120" width="100" height="30" as="geometry">
                        <mxRectangle width="100" height="30" as="alternateBounds"/>
                    </mxGeometry>
                </mxCell>
                <mxCell id="ElQEqkokP7DGrJVSCs05-178" value="NOT NULL / FOREIGN KEY" style="shape=partialRectangle;connectable=0;fillColor=none;top=0;left=0;bottom=0;right=0;align=left;spacingLeft=6;fontStyle=0;overflow=hidden;" parent="ElQEqkokP7DGrJVSCs05-174" vertex="1">
                    <mxGeometry x="220" width="200" height="30" as="geometry">
                        <mxRectangle width="200" height="30" as="alternateBounds"/>
                    </mxGeometry>
                </mxCell>
                <mxCell id="ElQEqkokP7DGrJVSCs05-179" style="shape=tableRow;horizontal=0;startSize=0;swimlaneHead=0;swimlaneBody=0;fillColor=none;collapsible=0;dropTarget=0;points=[[0,0.5],[1,0.5]];portConstraint=eastwest;top=0;left=0;right=0;bottom=1;" parent="ElQEqkokP7DGrJVSCs05-168" vertex="1">
                    <mxGeometry y="90" width="420" height="30" as="geometry"/>
                </mxCell>
                <mxCell id="ElQEqkokP7DGrJVSCs05-180" value="FK" style="shape=partialRectangle;connectable=0;fillColor=none;top=0;left=0;bottom=0;right=0;fontStyle=0;overflow=hidden;" parent="ElQEqkokP7DGrJVSCs05-179" vertex="1">
                    <mxGeometry width="30" height="30" as="geometry">
                        <mxRectangle width="30" height="30" as="alternateBounds"/>
                    </mxGeometry>
                </mxCell>
                <mxCell id="ElQEqkokP7DGrJVSCs05-181" value="post_id" style="shape=partialRectangle;connectable=0;fillColor=none;top=0;left=0;bottom=0;right=0;align=left;spacingLeft=6;fontStyle=0;overflow=hidden;" parent="ElQEqkokP7DGrJVSCs05-179" vertex="1">
                    <mxGeometry x="30" width="90" height="30" as="geometry">
                        <mxRectangle width="90" height="30" as="alternateBounds"/>
                    </mxGeometry>
                </mxCell>
                <mxCell id="ElQEqkokP7DGrJVSCs05-182" value="INTEGER" style="shape=partialRectangle;connectable=0;fillColor=none;top=0;left=0;bottom=0;right=0;align=left;spacingLeft=6;fontStyle=0;overflow=hidden;" parent="ElQEqkokP7DGrJVSCs05-179" vertex="1">
                    <mxGeometry x="120" width="100" height="30" as="geometry">
                        <mxRectangle width="100" height="30" as="alternateBounds"/>
                    </mxGeometry>
                </mxCell>
                <mxCell id="ElQEqkokP7DGrJVSCs05-183" value="NOT NULL / FOREIGN KEY" style="shape=partialRectangle;connectable=0;fillColor=none;top=0;left=0;bottom=0;right=0;align=left;spacingLeft=6;fontStyle=0;overflow=hidden;" parent="ElQEqkokP7DGrJVSCs05-179" vertex="1">
                    <mxGeometry x="220" width="200" height="30" as="geometry">
                        <mxRectangle width="200" height="30" as="alternateBounds"/>
                    </mxGeometry>
                </mxCell>
                <mxCell id="ElQEqkokP7DGrJVSCs05-184" value="" style="shape=tableRow;horizontal=0;startSize=0;swimlaneHead=0;swimlaneBody=0;fillColor=none;collapsible=0;dropTarget=0;points=[[0,0.5],[1,0.5]];portConstraint=eastwest;top=0;left=0;right=0;bottom=0;" parent="ElQEqkokP7DGrJVSCs05-168" vertex="1">
                    <mxGeometry y="120" width="420" height="30" as="geometry"/>
                </mxCell>
                <mxCell id="ElQEqkokP7DGrJVSCs05-185" value="" style="shape=partialRectangle;connectable=0;fillColor=none;top=0;left=0;bottom=0;right=0;editable=1;overflow=hidden;" parent="ElQEqkokP7DGrJVSCs05-184" vertex="1">
                    <mxGeometry width="30" height="30" as="geometry">
                        <mxRectangle width="30" height="30" as="alternateBounds"/>
                    </mxGeometry>
                </mxCell>
                <mxCell id="ElQEqkokP7DGrJVSCs05-186" value="picture_url" style="shape=partialRectangle;connectable=0;fillColor=none;top=0;left=0;bottom=0;right=0;align=left;spacingLeft=6;overflow=hidden;" parent="ElQEqkokP7DGrJVSCs05-184" vertex="1">
                    <mxGeometry x="30" width="90" height="30" as="geometry">
                        <mxRectangle width="90" height="30" as="alternateBounds"/>
                    </mxGeometry>
                </mxCell>
                <mxCell id="ElQEqkokP7DGrJVSCs05-187" value="VARCHAR(255)" style="shape=partialRectangle;connectable=0;fillColor=none;top=0;left=0;bottom=0;right=0;align=left;spacingLeft=6;overflow=hidden;" parent="ElQEqkokP7DGrJVSCs05-184" vertex="1">
                    <mxGeometry x="120" width="100" height="30" as="geometry">
                        <mxRectangle width="100" height="30" as="alternateBounds"/>
                    </mxGeometry>
                </mxCell>
                <mxCell id="ElQEqkokP7DGrJVSCs05-188" value="NOT NULL / UNIQUE" style="shape=partialRectangle;connectable=0;fillColor=none;top=0;left=0;bottom=0;right=0;align=left;spacingLeft=6;overflow=hidden;" parent="ElQEqkokP7DGrJVSCs05-184" vertex="1">
                    <mxGeometry x="220" width="200" height="30" as="geometry">
                        <mxRectangle width="200" height="30" as="alternateBounds"/>
                    </mxGeometry>
                </mxCell>
                <mxCell id="ElQEqkokP7DGrJVSCs05-194" style="shape=tableRow;horizontal=0;startSize=0;swimlaneHead=0;swimlaneBody=0;fillColor=none;collapsible=0;dropTarget=0;points=[[0,0.5],[1,0.5]];portConstraint=eastwest;top=0;left=0;right=0;bottom=0;" parent="ElQEqkokP7DGrJVSCs05-168" vertex="1">
                    <mxGeometry y="150" width="420" height="30" as="geometry"/>
                </mxCell>
                <mxCell id="ElQEqkokP7DGrJVSCs05-195" style="shape=partialRectangle;connectable=0;fillColor=none;top=0;left=0;bottom=0;right=0;editable=1;overflow=hidden;" parent="ElQEqkokP7DGrJVSCs05-194" vertex="1">
                    <mxGeometry width="30" height="30" as="geometry">
                        <mxRectangle width="30" height="30" as="alternateBounds"/>
                    </mxGeometry>
                </mxCell>
                <mxCell id="ElQEqkokP7DGrJVSCs05-196" style="shape=partialRectangle;connectable=0;fillColor=none;top=0;left=0;bottom=0;right=0;align=left;spacingLeft=6;overflow=hidden;" parent="ElQEqkokP7DGrJVSCs05-194" vertex="1">
                    <mxGeometry x="30" width="90" height="30" as="geometry">
                        <mxRectangle width="90" height="30" as="alternateBounds"/>
                    </mxGeometry>
                </mxCell>
                <mxCell id="ElQEqkokP7DGrJVSCs05-197" style="shape=partialRectangle;connectable=0;fillColor=none;top=0;left=0;bottom=0;right=0;align=left;spacingLeft=6;overflow=hidden;" parent="ElQEqkokP7DGrJVSCs05-194" vertex="1">
                    <mxGeometry x="120" width="100" height="30" as="geometry">
                        <mxRectangle width="100" height="30" as="alternateBounds"/>
                    </mxGeometry>
                </mxCell>
                <mxCell id="ElQEqkokP7DGrJVSCs05-198" style="shape=partialRectangle;connectable=0;fillColor=none;top=0;left=0;bottom=0;right=0;align=left;spacingLeft=6;overflow=hidden;" parent="ElQEqkokP7DGrJVSCs05-194" vertex="1">
                    <mxGeometry x="220" width="200" height="30" as="geometry">
                        <mxRectangle width="200" height="30" as="alternateBounds"/>
                    </mxGeometry>
                </mxCell>
                <mxCell id="ElQEqkokP7DGrJVSCs05-199" value="" style="fontSize=12;html=1;endArrow=ERzeroToOne;endFill=0;startArrow=ERone;startFill=0;rounded=0;elbow=vertical;exitX=1;exitY=0.5;exitDx=0;exitDy=0;" parent="1" source="ElQEqkokP7DGrJVSCs05-56" edge="1">
                    <mxGeometry width="100" height="100" relative="1" as="geometry">
                        <mxPoint x="950.0000000000002" y="434.38" as="sourcePoint"/>
                        <mxPoint x="1000" y="390" as="targetPoint"/>
                        <Array as="points">
                            <mxPoint x="960" y="195"/>
                            <mxPoint x="960" y="390"/>
                        </Array>
                    </mxGeometry>
                </mxCell>
                <mxCell id="38Nd-zwF2qF1sSEfDLpZ-1" value="" style="fontSize=12;html=1;endArrow=ERzeroToMany;endFill=0;startArrow=ERone;startFill=0;rounded=0;elbow=vertical;exitX=0.526;exitY=1.033;exitDx=0;exitDy=0;exitPerimeter=0;" edge="1" parent="1" source="ElQEqkokP7DGrJVSCs05-66" target="ElQEqkokP7DGrJVSCs05-125">
                    <mxGeometry width="100" height="100" relative="1" as="geometry">
                        <mxPoint x="331.4000000000001" y="282.06999999999994" as="sourcePoint"/>
                        <mxPoint x="710" y="330" as="targetPoint"/>
                    </mxGeometry>
                </mxCell>
                <mxCell id="FSzguP7Mxgq1bzyW5_e1-5" style="edgeStyle=none;html=1;exitX=0.5;exitY=0;exitDx=0;exitDy=0;endArrow=blockThin;endFill=1;" edge="1" parent="1" source="FSzguP7Mxgq1bzyW5_e1-1">
                    <mxGeometry relative="1" as="geometry">
                        <mxPoint x="420" y="350.0000000000001" as="targetPoint"/>
                    </mxGeometry>
                </mxCell>
                <mxCell id="FSzguP7Mxgq1bzyW5_e1-1" value="ここおかしい" style="text;strokeColor=#2D7600;align=center;fillColor=#60a917;html=1;verticalAlign=middle;whiteSpace=wrap;rounded=0;fontColor=#ffffff;" vertex="1" parent="1">
                    <mxGeometry x="300" y="420" width="150" height="30" as="geometry"/>
                </mxCell>
                <mxCell id="FSzguP7Mxgq1bzyW5_e1-4" style="edgeStyle=none;html=1;exitX=0.5;exitY=0;exitDx=0;exitDy=0;endArrow=blockThin;endFill=1;" edge="1" parent="1" source="FSzguP7Mxgq1bzyW5_e1-2">
                    <mxGeometry relative="1" as="geometry">
                        <mxPoint x="710.3333333333335" y="550" as="targetPoint"/>
                    </mxGeometry>
                </mxCell>
                <mxCell id="FSzguP7Mxgq1bzyW5_e1-2" value="もっと正規化できる" style="text;strokeColor=#2D7600;align=center;fillColor=#60a917;html=1;verticalAlign=middle;whiteSpace=wrap;rounded=0;fontColor=#ffffff;" vertex="1" parent="1">
                    <mxGeometry x="635" y="620" width="150" height="30" as="geometry"/>
                </mxCell>
                <mxCell id="FSzguP7Mxgq1bzyW5_e1-6" style="edgeStyle=none;html=1;exitX=0.5;exitY=0;exitDx=0;exitDy=0;endArrow=blockThin;endFill=1;" edge="1" parent="1" source="FSzguP7Mxgq1bzyW5_e1-7">
                    <mxGeometry relative="1" as="geometry">
                        <mxPoint x="1099.9999999999998" y="170" as="targetPoint"/>
                    </mxGeometry>
                </mxCell>
                <mxCell id="FSzguP7Mxgq1bzyW5_e1-7" value="もっと正規化できる" style="text;strokeColor=#2D7600;align=center;fillColor=#60a917;html=1;verticalAlign=middle;whiteSpace=wrap;rounded=0;fontColor=#ffffff;" vertex="1" parent="1">
                    <mxGeometry x="980" y="240" width="150" height="30" as="geometry"/>
                </mxCell>
            </root>
        </mxGraphModel>
    </diagram>
    <diagram id="XJa0ljLCb2qIuihe8d-H" name="origin">
        <mxGraphModel dx="526" dy="787" grid="1" gridSize="10" guides="1" tooltips="1" connect="1" arrows="1" fold="1" page="1" pageScale="1" pageWidth="1600" pageHeight="900" math="0" shadow="0">
            <root>
                <mxCell id="0"/>
                <mxCell id="1" parent="0"/>
                <mxCell id="6" value="投稿ID" style="swimlane;fontStyle=0;childLayout=stackLayout;horizontal=1;startSize=26;horizontalStack=0;resizeParent=1;resizeParentMax=0;resizeLast=0;collapsible=1;marginBottom=0;align=center;fontSize=14;" parent="1" vertex="1">
                    <mxGeometry x="360" y="340" width="160" height="130" as="geometry"/>
                </mxCell>
                <mxCell id="7" value="ユーザーID  (FK)&#10;日付&#10;キャプション&#10;&#10;" style="text;strokeColor=none;fillColor=none;spacingLeft=4;spacingRight=4;overflow=hidden;rotatable=0;points=[[0,0.5],[1,0.5]];portConstraint=eastwest;fontSize=12;" parent="6" vertex="1">
                    <mxGeometry y="26" width="160" height="104" as="geometry"/>
                </mxCell>
                <mxCell id="11" value="投稿テーブル" style="text;strokeColor=none;align=left;fillColor=none;html=1;verticalAlign=middle;whiteSpace=wrap;rounded=0;" parent="1" vertex="1">
                    <mxGeometry x="360" y="310" width="90" height="30" as="geometry"/>
                </mxCell>
                <mxCell id="12" value="スタンプID" style="swimlane;fontStyle=0;childLayout=stackLayout;horizontal=1;startSize=26;horizontalStack=0;resizeParent=1;resizeParentMax=0;resizeLast=0;collapsible=1;marginBottom=0;align=center;fontSize=14;" parent="1" vertex="1">
                    <mxGeometry x="360" y="550" width="160" height="130" as="geometry"/>
                </mxCell>
                <mxCell id="13" value="ユーザーID  (FK)&#10;投稿ID  (FK)&#10;スタンプ名&#10;スタンプの文字コード&#10;" style="text;strokeColor=none;fillColor=none;spacingLeft=4;spacingRight=4;overflow=hidden;rotatable=0;points=[[0,0.5],[1,0.5]];portConstraint=eastwest;fontSize=12;" parent="12" vertex="1">
                    <mxGeometry y="26" width="160" height="104" as="geometry"/>
                </mxCell>
                <mxCell id="14" value="スタンプ" style="text;strokeColor=none;align=left;fillColor=none;html=1;verticalAlign=middle;whiteSpace=wrap;rounded=0;" parent="1" vertex="1">
                    <mxGeometry x="360" y="520" width="60" height="30" as="geometry"/>
                </mxCell>
                <mxCell id="15" value="投稿カテゴリーID" style="swimlane;fontStyle=0;childLayout=stackLayout;horizontal=1;startSize=26;horizontalStack=0;resizeParent=1;resizeParentMax=0;resizeLast=0;collapsible=1;marginBottom=0;align=center;fontSize=14;" parent="1" vertex="1">
                    <mxGeometry x="720" y="340" width="160" height="130" as="geometry"/>
                </mxCell>
                <mxCell id="16" value="ユーザーID  (FK)&#10;カテゴリー名&#10;投稿ID  (FK)&#10;" style="text;strokeColor=none;fillColor=none;spacingLeft=4;spacingRight=4;overflow=hidden;rotatable=0;points=[[0,0.5],[1,0.5]];portConstraint=eastwest;fontSize=12;" parent="15" vertex="1">
                    <mxGeometry y="26" width="160" height="104" as="geometry"/>
                </mxCell>
                <mxCell id="17" value="投稿カテゴリーテーブル" style="text;strokeColor=none;align=left;fillColor=none;html=1;verticalAlign=middle;whiteSpace=wrap;rounded=0;" parent="1" vertex="1">
                    <mxGeometry x="720" y="310" width="150" height="30" as="geometry"/>
                </mxCell>
                <mxCell id="20" value="" style="fontSize=12;html=1;endArrow=ERoneToMany;startArrow=ERone;startFill=0;endFill=0;entryX=0;entryY=0.5;entryDx=0;entryDy=0;" parent="1" source="7" target="16" edge="1">
                    <mxGeometry width="100" height="100" relative="1" as="geometry">
                        <mxPoint x="520" y="330" as="sourcePoint"/>
                        <mxPoint x="570" y="330" as="targetPoint"/>
                    </mxGeometry>
                </mxCell>
                <mxCell id="22" value="" style="fontSize=12;html=1;endArrow=ERoneToMany;endFill=0;entryX=-0.004;entryY=0.441;entryDx=0;entryDy=0;entryPerimeter=0;startArrow=ERone;startFill=0;rounded=0;elbow=vertical;" parent="1" source="24" target="13" edge="1">
                    <mxGeometry width="100" height="100" relative="1" as="geometry">
                        <mxPoint x="430" y="511.86400000000003" as="sourcePoint"/>
                        <mxPoint x="590" y="561.864" as="targetPoint"/>
                    </mxGeometry>
                </mxCell>
                <mxCell id="23" value="ユーザーID" style="swimlane;fontStyle=0;childLayout=stackLayout;horizontal=1;startSize=26;horizontalStack=0;resizeParent=1;resizeParentMax=0;resizeLast=0;collapsible=1;marginBottom=0;align=center;fontSize=14;rounded=0;" parent="1" vertex="1">
                    <mxGeometry x="80" y="360" width="160" height="120" as="geometry"/>
                </mxCell>
                <mxCell id="24" value="ユーザー名&#10;メールアドレス&#10;パスワード&#10;パスワード確認" style="text;strokeColor=none;fillColor=none;spacingLeft=4;spacingRight=4;overflow=hidden;rotatable=0;points=[[0,0.5],[1,0.5]];portConstraint=eastwest;fontSize=12;" parent="23" vertex="1">
                    <mxGeometry y="26" width="160" height="94" as="geometry"/>
                </mxCell>
                <mxCell id="25" value="ユーザーテーブル" style="text;strokeColor=none;align=left;fillColor=none;html=1;verticalAlign=middle;whiteSpace=wrap;rounded=0;" parent="1" vertex="1">
                    <mxGeometry x="80" y="330" width="110" height="30" as="geometry"/>
                </mxCell>
                <mxCell id="28" value="" style="fontSize=12;html=1;endArrow=ERoneToMany;endFill=0;startArrow=ERone;startFill=0;rounded=0;elbow=vertical;entryX=0;entryY=0.5;entryDx=0;entryDy=0;exitX=1.013;exitY=0.327;exitDx=0;exitDy=0;exitPerimeter=0;" parent="1" source="24" target="7" edge="1">
                    <mxGeometry width="100" height="100" relative="1" as="geometry">
                        <mxPoint x="300" y="480" as="sourcePoint"/>
                        <mxPoint x="240" y="420" as="targetPoint"/>
                    </mxGeometry>
                </mxCell>
                <mxCell id="32" value="画像ID" style="swimlane;fontStyle=0;childLayout=stackLayout;horizontal=1;startSize=26;horizontalStack=0;resizeParent=1;resizeParentMax=0;resizeLast=0;collapsible=1;marginBottom=0;align=center;fontSize=14;" parent="1" vertex="1">
                    <mxGeometry x="720" y="550" width="160" height="130" as="geometry"/>
                </mxCell>
                <mxCell id="33" value="ユーザーID  (FK)&#10;画像URL&#10;投稿ID  (FK)" style="text;strokeColor=none;fillColor=none;spacingLeft=4;spacingRight=4;overflow=hidden;rotatable=0;points=[[0,0.5],[1,0.5]];portConstraint=eastwest;fontSize=12;" parent="32" vertex="1">
                    <mxGeometry y="26" width="160" height="104" as="geometry"/>
                </mxCell>
                <mxCell id="34" value="画像テーブル" style="text;strokeColor=none;align=left;fillColor=none;html=1;verticalAlign=middle;whiteSpace=wrap;rounded=0;" parent="1" vertex="1">
                    <mxGeometry x="720" y="520" width="150" height="30" as="geometry"/>
                </mxCell>
                <mxCell id="35" value="" style="fontSize=12;html=1;endArrow=ERmany;startArrow=ERone;startFill=0;endFill=0;entryX=0;entryY=0.5;entryDx=0;entryDy=0;" parent="1" source="7" target="33" edge="1">
                    <mxGeometry width="100" height="100" relative="1" as="geometry">
                        <mxPoint x="520" y="418.0000000000002" as="sourcePoint"/>
                        <mxPoint x="700" y="600" as="targetPoint"/>
                    </mxGeometry>
                </mxCell>
                <mxCell id="37" value="" style="fontSize=12;html=1;endArrow=ERmany;startArrow=ERone;startFill=0;endFill=0;entryX=0.5;entryY=0;entryDx=0;entryDy=0;" parent="1" source="7" target="12" edge="1">
                    <mxGeometry width="100" height="100" relative="1" as="geometry">
                        <mxPoint x="509.33333333333326" y="470.0000000000002" as="sourcePoint"/>
                        <mxPoint x="720" y="628.0000000000002" as="targetPoint"/>
                    </mxGeometry>
                </mxCell>
                <mxCell id="38" value="コメントID" style="swimlane;fontStyle=0;childLayout=stackLayout;horizontal=1;startSize=26;horizontalStack=0;resizeParent=1;resizeParentMax=0;resizeLast=0;collapsible=1;marginBottom=0;align=center;fontSize=14;" parent="1" vertex="1">
                    <mxGeometry x="360" y="110" width="160" height="130" as="geometry"/>
                </mxCell>
                <mxCell id="39" value="コメント&#10;ユーザーID  (FK)&#10;投稿ID  (FK)&#10;" style="text;strokeColor=none;fillColor=none;spacingLeft=4;spacingRight=4;overflow=hidden;rotatable=0;points=[[0,0.5],[1,0.5]];portConstraint=eastwest;fontSize=12;" parent="38" vertex="1">
                    <mxGeometry y="26" width="160" height="104" as="geometry"/>
                </mxCell>
                <mxCell id="40" value="コメントテーブル(実装検討)" style="text;strokeColor=none;align=left;fillColor=none;html=1;verticalAlign=middle;whiteSpace=wrap;rounded=0;" parent="1" vertex="1">
                    <mxGeometry x="360" y="80" width="180" height="30" as="geometry"/>
                </mxCell>
                <mxCell id="41" value="" style="fontSize=12;html=1;endArrow=ERoneToMany;endFill=0;startArrow=ERone;startFill=0;rounded=0;elbow=vertical;entryX=0;entryY=0.5;entryDx=0;entryDy=0;exitX=0.75;exitY=0;exitDx=0;exitDy=0;" parent="1" source="23" target="39" edge="1">
                    <mxGeometry width="100" height="100" relative="1" as="geometry">
                        <mxPoint x="242.08000000000015" y="416.73800000000006" as="sourcePoint"/>
                        <mxPoint x="360" y="418" as="targetPoint"/>
                    </mxGeometry>
                </mxCell>
                <mxCell id="42" value="" style="fontSize=12;html=1;endArrow=ERmany;startArrow=ERone;startFill=0;endFill=0;entryX=0.659;entryY=1.022;entryDx=0;entryDy=0;entryPerimeter=0;exitX=0.665;exitY=-0.003;exitDx=0;exitDy=0;exitPerimeter=0;" parent="1" source="6" target="39" edge="1">
                    <mxGeometry width="100" height="100" relative="1" as="geometry">
                        <mxPoint x="465" y="330" as="sourcePoint"/>
                        <mxPoint x="439.5499999999999" y="390" as="targetPoint"/>
                    </mxGeometry>
                </mxCell>
            </root>
        </mxGraphModel>
    </diagram>
</mxfile>